<?xml version="1.0" encoding="UTF-8" standalone="no"?>
<!DOCTYPE svg PUBLIC "-//W3C//DTD SVG 1.1//EN" "http://www.w3.org/Graphics/SVG/1.1/DTD/svg11.dtd">
<svg width="1260.00" height="776.00" viewBox="0.00 0.00 1260.00 776.00" xmlns="http://www.w3.org/2000/svg" xmlns:xlink="http://www.w3.org/1999/xlink">
<g stroke-linecap="round" id="vector_logo">
<path d="M239.50,339.50 C258.91,320.05 304.98,273.92 331.64,247.24 C356.00,223.18 383.42,195.91 386.48,192.71 C387.33,191.81 388.24,190.09 388.32,188.92 C388.32,188.86 387.47,180.75 387.44,178.47 C387.36,147.40 387.37,79.84 387.46,43.33 C387.48,37.20 387.46,26.29 387.50,25.87 C387.63,23.75 387.09,22.79 385.50,22.50 C385.22,22.46 339.80,21.87 324.56,22.57 C314.79,23.24 297.84,25.76 290.26,28.31 C286.08,29.74 270.19,36.93 265.29,39.94 C261.81,42.10 257.55,45.96 254.62,49.09 C252.48,51.40 248.20,57.93 246.00,61.58 C242.68,67.15 241.07,70.39 239.91,73.92 C238.56,78.13 238.42,92.09 238.38,97.68 C238.28,127.69 238.19,198.51 238.19,239.32 C238.26,272.78 238.50,334.77 238.48,335.16 C238.40,337.18 239.42,338.76 239.50,339.50 C239.52,339.74 232.04,359.76 229.50,366.50" fill="none" stroke="rgb(0, 0, 0)" stroke-width="24.80" stroke-opacity="1.00" stroke-linejoin="round"/>
<path d="M1166.50,759.50 C1175.15,757.64 1187.00,754.10 1191.30,751.85 C1197.07,748.81 1212.02,738.09 1216.51,733.73 C1219.40,730.90 1224.59,724.56 1226.78,721.09 C1230.99,714.31 1236.42,699.30 1238.74,692.74 C1239.60,690.35 1240.13,685.70 1239.50,682.50 C1239.43,682.15 1233.24,659.27 1230.79,653.89 C1227.95,647.74 1221.84,638.50 1216.47,631.94 C1209.73,623.75 1190.15,604.11 1182.69,596.62 C1165.44,579.35 1127.86,541.73 1107.52,521.38 C1084.09,497.97 1034.15,448.06 1007.63,421.57 C978.03,392.01 919.08,333.15 889.73,303.84 C863.23,277.36 813.09,227.25 789.44,203.61 C768.66,182.81 729.94,144.04 712.01,126.08 C704.12,118.16 683.14,97.04 670.06,83.84 C658.07,71.55 630.11,43.92 629.94,43.74 C628.82,42.60 626.87,42.08 625.61,42.91 C625.39,43.06 618.60,51.41 617.17,52.87 C602.02,68.15 568.44,101.96 550.00,120.49 C528.29,142.27 481.57,189.07 456.57,214.10 C428.29,242.37 369.55,301.06 339.09,331.48 C311.09,359.44 258.07,412.36 233.05,437.32 C211.01,459.31 169.90,500.29 150.84,519.29 C133.67,536.38 92.80,576.94 69.09,600.40 C64.78,604.84 55.75,614.27 50.50,620.28 C43.82,628.23 34.87,639.82 31.05,645.71 C28.09,650.41 25.77,654.73 23.91,659.25 C22.34,663.10 20.06,670.69 19.38,674.34 C18.58,678.80 18.43,684.72 19.06,689.19 C19.58,692.76 21.68,700.34 23.07,704.02 C25.40,710.13 34.64,724.07 39.50,729.50 C44.13,734.64 58.12,746.91 62.98,749.60 C66.76,751.67 83.62,757.11 88.29,757.97 C92.27,758.66 98.07,758.35 102.49,757.26 C106.15,756.32 121.73,750.46 129.78,746.25 C138.45,741.43 148.91,734.38 155.50,728.50 C156.11,727.95 205.98,678.57 225.06,659.63 C247.52,637.23 295.81,588.98 321.65,563.12 C350.87,533.82 410.22,474.26 440.35,444.01 C467.01,417.26 516.78,367.34 539.88,344.17 C559.43,324.59 594.97,289.02 610.96,273.03 C612.71,271.28 617.58,266.45 617.85,266.15 C619.27,264.63 619.98,264.24 621.25,264.33 C623.99,264.55 629.53,264.22 633.09,263.97 C636.91,263.83 642.12,265.24 643.76,266.85 C644.33,267.43 658.98,283.20 664.37,288.72 C670.59,294.91 684.97,308.96 686.96,310.35 C689.07,311.84 689.87,313.03 690.50,315.50 C691.30,318.90 690.67,334.97 690.50,335.50 C689.97,337.03 684.56,341.44 683.10,342.87 C666.31,359.56 627.01,398.70 604.51,421.14 C576.31,449.33 519.10,506.58 490.10,535.64 C466.55,559.39 424.92,601.55 406.83,619.96 C399.58,627.41 393.00,634.92 388.55,642.23 C387.60,643.81 383.83,650.75 381.90,654.59 C380.46,657.46 378.15,664.16 377.06,667.53 C375.81,671.50 374.52,678.54 374.50,681.50 C374.50,684.12 375.77,692.51 376.76,696.44 C377.73,700.19 380.40,707.52 382.19,710.89 C385.48,717.00 395.23,729.52 401.11,735.22 C404.03,738.04 409.85,743.13 412.91,745.56 C415.84,747.85 421.57,751.15 424.80,752.32 C430.49,754.34 450.04,758.42 453.50,758.50 C456.90,758.55 462.27,757.18 467.02,755.32 C471.31,753.63 489.45,744.18 492.08,742.66 C499.01,738.62 509.47,730.59 515.18,725.63 C523.00,718.50 578.02,662.04 601.30,638.49 C624.64,615.06 676.45,563.16 704.90,534.69 C729.86,509.78 772.77,467.04 790.72,449.20 C792.47,447.47 797.27,442.63 797.50,442.50 C797.94,442.27 802.89,442.49 806.73,441.77 C809.66,441.25 812.13,441.07 813.94,441.39 C817.29,442.04 823.28,446.20 826.43,449.62 C834.95,459.16 857.41,481.51 869.22,493.36 C873.12,497.16 879.14,502.23 879.23,502.36 C880.64,504.41 880.84,510.81 880.60,515.64 C880.39,520.03 880.73,525.11 880.50,525.50 C880.18,526.02 814.00,591.88 788.84,616.98 C781.13,624.83 772.39,634.20 769.02,639.60 C765.14,645.91 761.30,654.71 757.63,664.43 C756.45,667.54 754.29,675.90 754.13,677.13 C753.75,680.44 754.69,686.70 755.93,691.55 C758.18,699.72 764.26,714.24 768.47,720.61 C772.67,726.90 782.72,737.93 788.55,742.38 C794.62,746.96 805.68,752.10 816.18,755.82 C820.96,757.39 825.16,758.27 829.45,758.29 C830.95,758.28 832.77,759.35 833.50,759.50 C834.11,759.62 851.96,754.88 859.43,751.72 C866.03,748.89 875.98,742.16 879.75,739.01 C887.27,732.71 951.24,669.00 976.11,644.05 C980.00,640.10 987.15,632.68 987.50,632.50 C987.58,632.46 1000.90,632.59 1005.90,632.19 C1006.91,632.12 1007.71,632.64 1009.19,634.15 C1009.46,634.43 1077.55,701.94 1101.40,725.49 C1109.15,732.99 1118.53,740.55 1125.44,745.02 C1131.28,748.64 1141.48,753.55 1148.89,755.37 C1156.55,757.17 1165.35,759.23 1166.50,759.50" fill="none" stroke="rgb(0, 0, 0)" stroke-width="24.80" stroke-opacity="1.00" stroke-linejoin="round"/>
<path d="M833.50,766.50 C833.50,766.50 833.50,759.50 833.50,759.50" fill="none" stroke="rgb(0, 0, 0)" stroke-width="24.80" stroke-opacity="1.00" stroke-linejoin="round"/>
</g>
</svg>
